<svg xmlns="http://www.w3.org/2000/svg" version="1.1" xmlns:xlink="http://www.w3.org/1999/xlink" xmlns:svgjs="http://svgjs.dev/svgjs" width="2000" height="2250" viewBox="0 0 2000 2250"><g transform="matrix(1,0,0,1,0,0)"><svg viewBox="0 0 320 360" data-background-color="#dfdad6" preserveAspectRatio="xMidYMid meet" height="2250" width="2000" xmlns="http://www.w3.org/2000/svg" xmlns:xlink="http://www.w3.org/1999/xlink"><g id="tight-bounds" transform="matrix(1,0,0,1,0,0)"><svg viewBox="0 0 320 360" height="360" width="320"><g><svg></svg></g><g><svg viewBox="0 0 320 360" height="360" width="320"><g><path d="M165.217 303.356c-1.404-1.755-2.809-0.702-2.808-1.755-8.426 2.106-24.223-3.511-30.894-2.809 1.404-2.106-2.106-1.755-2.106-3.159-1.404 2.106-2.809 0-4.915 0.702-2.106-5.266-10.532-1.404-11.585-8.075-4.915 0-6.67-2.809-11.586-5.617 0.351-0.351 0.702-0.351 1.054-0.702-2.457-0.351-2.457-1.755-4.564-1.755l0.702-1.405c-3.862-0.702-5.266-6.67-10.883-8.776-1.755-0.351-5.617-6.319-7.723-7.724-1.053-0.702-2.809-0.702-0.352-1.053-0.351-0.351-0.351-1.053 0-1.404-2.457-0.702-2.809-2.809-5.968-3.862-0.351-1.053 0.702-1.755 0-2.457-0.702-0.351-1.755 0.351-2.457 0-0.351 6.319 6.67 7.021 8.777 12.287-0.702-0.702-1.755-2.809-2.458-1.404-0.351 1.053 2.809 4.915 2.809 2.808-1.053 0.702-1.404-1.053-0.703-1.404 1.053 1.755 3.16 1.404 3.16 2.809-1.053 1.053-2.457-1.053-2.106 0.702 3.16 1.755 2.809 3.511 4.563 5.968-1.404-1.755-1.755 1.404-3.159 0-0.351-5.266-6.319-4.213-6.319-9.479-0.702-1.755-1.404-0.351-2.458-1.053 1.404-1.404-4.213-6.319-4.213-4.564-1.755-2.106-0.702-2.809-1.053-4.213-1.404-0.351-0.351 1.404-1.404 0.351 1.404-2.457-1.755-5.617-3.862-8.074l1.405-0.702c-2.457-1.404-2.809-4.213-4.564-7.373-2.106 3.16 4.213 10.181 3.159 11.585 0 0.351 2.457 3.16 3.16 4.564 2.809 4.915 4.915 10.883 8.777 13.692-0.702-0.351-0.351-2.457 0.702-1.404 0 1.053-0.702 2.106-0.702 3.159 2.106 2.106 3.862 3.862 5.968 5.968-4.564-2.809-9.128-5.617-12.288-9.83 1.755-0.351 3.511 2.809 4.915 2.458-3.511-2.809-2.457-3.862-3.861-7.372-1.404-1.053 0.351 1.404-1.054 1.755-4.564-4.213-8.075-6.67-10.181-10.532 0.351-0.351 0.702-0.702 0.703-1.404-0.351-0.351-0.351-0.351-0.703-0.702 2.106 2.106 2.809 3.862 5.266 4.212-1.053-1.053 0-1.404-1.404-2.457-0.702-1.404-1.755 0.702-2.457-0.351 0.702-1.053 0-2.457 0-3.511-0.702 0-1.404 0-1.756-1.053-0.702-0.351-1.053 0-1.404 0.702-0.351-0.351-0.351-1.053-0.702-1.404v-0.351c-0.351-0.351-0.702-1.053-1.053-1.405-2.809-7.372-4.564-17.202-8.426-23.521 1.053-4.213-0.702-12.638-1.755-14.745 1.053-1.755 0.351-9.83-0.351-11.234-1.755 0.702 0.351 4.564-1.404 5.617-1.755-7.723 1.053-16.5 0.351-23.521 0.702 0 1.404 0 1.404-0.351-1.053-1.053 0.702-3.16 0.351-5.617 1.404-3.16-3.16 4.564-3.16 7.723-0.351 0.702-1.755 0-1.404 1.756 0 2.457 0.702 7.372-0.702 10.883-0.702 0-0.702-0.702-1.404-0.351-0.351 1.755-0.702 3.862-1.053 5.617-0.351-0.702-0.702-1.755-0.703-2.107-1.755-8.777 0-18.958-0.702-26.33 1.404 0 1.404-2.106 2.458-2.808-0.351 2.809-1.053 6.319 0.702 7.021 1.404-13.692 4.213-28.787 10.532-43.532 4.564-10.883 11.234-21.766 19.308-30.543 0.702 1.053-0.351 3.511 0 4.564 7.021-7.372 11.585-16.149 19.309-21.064 0.351 1.755-3.16 3.16-3.16 4.564 3.16-3.16 4.213-2.106 7.724-3.159 1.053-1.404-1.404 0-1.756-1.405 2.106-1.404 3.511-3.16 4.915-4.212 0 0.351-0.351 0.351-0.351 0.702 3.862-1.053 4.213-3.16 7.022-3.862-0.351-0.351-1.053-0.702-2.107-0.351 0.702-0.351 1.755-1.053 2.809-1.404-0.351 0-0.351 0.351-0.702 0.351 2.106-1.053 0.351 0.351 0.351 1.053 0.351 0 0.702-0.351 0.702-0.351-2.106 1.404-3.511 2.106-4.213 4.564 1.053-0.702 1.404 0 2.809-1.054 1.404-0.702-0.351-1.755 0.702-2.457 1.053 0.702 2.457 0.351 3.51 0.351 0-0.702 0.351-1.404 1.054-1.755 0.351-0.702 0-1.053-0.352-1.053 0.351-0.351 0.702-0.351 1.405-0.703 0 0 0.351 0 0.351 0.351 5.968-2.809 12.638-5.266 18.957-7.372 3.862-0.351 8.777-0.351 10.883-2.808-0.702 0-1.404 0.351-1.755 0 0.351 0 1.053-0.351 1.404-0.351 0.702 0.702 1.755 0 0.702 1.404 0.351 0 0.351 0 0.703-0.351 0 0.351 0 0.351 0.351 0.702 0.351 0 0.702-0.351 1.053-1.053 0.351 0 0.702 0 1.053-0.351l-0.351 0.351c2.809-0.702 5.266-0.351 9.128-1.054 0-0.351 0-0.702 0-1.053 0.702 0 1.053-0.351 1.755-0.351v0.351c1.404-0.702 2.809 0.702 2.808 0 0.351 0 0.351 0 0.703 0 0 0.702-0.351 1.053-0.351 1.405 1.755 0 2.809 0 3.51-1.054-0.351-0.351-0.702-0.351-1.053-0.351 0.702 0 1.404-0.351 2.106-0.702 1.053 0.351 1.404 0.702 1.405 2.107 1.755-3.16 7.372 0.702 9.829 0 1.053 0 0.702-1.404 1.405-2.107 0.351 0 0.702 0 1.053 0 1.755 1.404 4.213 2.809 7.372 3.16-2.809-0.702 0.351-1.053 0.702-1.405-0.702 0-0.702-0.351-0.702-0.702 1.053 0 2.106 0.351 3.16 0.351 0 0.702 0.351 1.053 1.053 1.054 0.702 0 0.702-0.351 0.702-1.054 1.053 0 1.755 0 2.809 0.351-0.351 1.404 1.755 1.755 2.457 2.809-2.809-0.702-5.968-1.755-7.021 0 11.234 2.457 23.521 5.968 35.457 11.936 0 0 0 0 0 0.351h0.352c2.106 1.053 4.213 2.106 6.319 3.16 1.404 0.702 2.457 1.404 3.861 2.457 0 0.351 0 0.702 0.703 0.702h0.351c1.404 1.053 2.809 1.755 4.212 2.809 1.404 2.106 2.809 4.915 5.266 4.213 5.266 8.075 10.883 11.234 15.447 19.659 0.351-1.404 1.404 3.16 3.16 3.511-2.809-0.351 1.755 1.755-1.053 1.404 2.457 2.457 3.16 3.511 3.51 6.319-0.702-1.404-1.053-1.755-1.404-0.351-0.351 2.106 2.457-0.351 3.511 1.756-2.106 0-1.404 1.404-1.054 3.159 1.053-1.053 0.702-2.106 1.756-1.755 1.404 1.404-0.702 1.755-0.351 2.809 1.053-1.404 1.404-0.702 2.808 0-1.755 0.351 1.053 2.809-1.053 1.755 1.404 1.755 1.755 2.809 1.053 4.564-1.404-2.106-0.351-3.511-2.457-3.16 4.213 3.511 2.106 11.585 7.021 12.287-3.16 0.702 0 2.106-1.755 2.458 2.106 0.702 1.053 3.511 3.51 4.213-0.351 1.755-1.053 2.809-1.404 4.563 1.053 1.404 1.404 4.213 3.16 4.564-1.053 1.053-0.351 3.862-1.404 4.915 1.404-0.702 2.106-0.702 3.159 0.702-1.755 1.404-0.351 2.809-1.404 3.16 3.16 8.075-0.702 24.575 1.053 30.894-2.106-1.053-1.404 2.457-2.808 2.457 2.457 1.053 0.351 2.809 1.404 4.564-4.915 2.809 0 10.532-6.67 12.287 0.702 4.915-2.106 7.021-4.213 12.288-0.351-0.351-0.351-0.702-0.702-1.054-0.351 2.457-1.755 2.809-1.054 4.915l-1.404-0.702c0 3.862-5.968 5.968-7.372 11.936-0.351 1.755-5.617 6.319-7.022 8.777-0.702 1.053-0.351 2.809-1.053 0.351-0.351 0.351-1.053 0.351-1.404 0.351-0.351 2.457-2.457 3.16-3.16 6.319-0.702 0.351-1.755-0.702-2.457 0.351 0 0.702 0.702 1.755 0.351 2.458 6.319-0.351 6.319-7.723 11.234-10.181-0.351 1.053-2.457 2.106-1.053 2.808 1.053 0 4.213-3.511 2.457-3.159 1.053 0.702-1.053 1.404-1.404 1.053 1.755-1.404 1.053-3.16 2.458-3.511 1.053 0.702-1.053 2.457 1.053 2.107 1.404-3.16 3.16-3.511 5.266-5.266-1.404 1.404 1.755 1.755 0.351 3.159-5.266 1.053-3.511 7.021-8.777 7.724-1.404 1.053-0.351 1.404-0.702 2.457-1.755-1.053-5.617 4.915-4.213 4.564-1.755 1.755-2.809 1.053-4.212 1.404-0.351 1.404 1.404 0.351 0.702 1.405-2.457-1.053-5.617 2.457-7.724 4.915l-1.053-1.054c-1.053 2.809-3.862 3.16-7.021 5.266 3.511 1.755 9.479-5.617 11.234-4.564 0.351 0 3.16-2.809 4.213-3.861 4.564-3.511 10.181-6.319 12.287-10.181-0.351 0.702-2.457 0.702-1.404-0.351 1.053-0.351 2.106 0.351 3.159 0.351 5.617-7.723 12.638-14.043 17.905-23.17 0.351-0.351 0.702-1.053 1.053-1.756-0.702 2.106-1.755 3.862-2.458 5.968-5.617 3.862-7.723 15.096-14.393 16.851 0.351 3.862-3.16 4.915-4.915 9.479-1.053 1.404-1.755-1.053-2.809 0.702 1.053 4.915-8.777 4.564-8.425 9.128-0.702 0.351-1.755 0.702-2.458 1.404h-0.351c-0.351 0.351-0.351 0.351-0.702 0.702-1.755 1.053-3.16 2.106-4.564 3.16-4.915 2.809-11.585 4.915-16.851 7.723v-0.351c-1.404 0.702-3.16 0.351-2.809 1.756-1.053 0.702-2.106 1.404-3.159 2.106-0.351 0-0.351 0-0.702 0 0 0-0.351-0.351-0.702-0.351-0.702 0-0.702 0-1.054 0.351-4.564 0.351-10.532 2.457-12.287 3.862-1.755-1.053-9.83 0.702-11.234 1.404 0.702 1.053 2.809 0 4.564 0-1.053 0.351-2.106 0.702-2.458 1.404-0.351 0-0.351 0-0.702 0-0.351-1.053-1.404 0-1.755-0.351h0.351c-0.351-1.404-1.404-2.106-3.16-1.755 0 0.702 0 1.053-0.351 1.755 0.702 0 2.809-1.053 2.809 0-0.351 0-0.351 0.351 0 0.351-0.702 0.702-1.755 0.702-2.458 1.054-1.404 0-3.16 0-4.563 0-0.351-0.351-0.702-0.351-1.405-0.703-0.351 0.351-1.053 0.351-1.404 0.703-2.106 0-4.564 0.351-6.319 0.702 0-0.702 0-1.404-0.702-1.405-1.053 1.404-3.16-0.351-5.617 0.352-2.457-0.702 1.404 1.053 4.915 1.755-0.351 0.351-0.702 0.702-1.756 1.053M116.068 308.271c-4.915-4.564-15.096-6.67-16.851-10.181-2.809-0.351-7.021-5.617-10.532-6.319 1.755 0 0.351-1.053 0-1.755-0.702 0.702-1.404 1.053-2.106 1.053 0-2.809-2.809-4.564-5.266-6.319 1.755 1.053 3.16 1.755 5.266 2.106 0-0.702 0-1.404 0.702-1.404 2.457 2.457 5.266 4.915 8.425 7.372 4.213 3.862 25.979 13.692 29.841 15.447 0 0-0.702 1.404-0.351 1.404 1.755 1.053 3.16-1.053 3.511 1.404-5.617 0.702-7.723-3.16-12.639-2.808M277.909 226.824v0.351 0c-0.351 0 0-0.351 0-0.351M136.079 64.281c-0.351 0.351-0.702 0.351-0.702 0.351 0-0.351 0.351-0.351 0.702-0.351M129.409 66.036c0 0.351 0 0.351 0 0 0 0.351 0 0.351 0 0 0 0.351 0 0 0 0M106.238 73.408v0c0.351-0.351 0.351-0.351 0.703-0.351-0.351 0-0.702 0.351-0.703 0.351M162.409 61.823c-0.702 0-1.053 0-1.404-0.351 0.351 0 0.702 0 1.053 0h0.351c0 0 0 0 0 0.351M168.728 62.525c-0.351-0.351-1.404-0.702-2.457-0.702 0-0.351 0.351-0.702 0.351-0.702 0.351 0 0.702 0 1.053 0 0 0 0.351 0 0.351 0.351 0 0 0 0 0-0.351 0.351 0 0.351 0 0.702 0 0.351 0.702 0.702 1.053 0 1.404M180.313 63.579c-1.755 0.351-2.809-0.351-4.564-1.405 1.053 0 2.457 0.351 3.511 0.702 0.351 0 0.702 0.351 1.053 0.703M305.292 113.43c-0.702 0.351-1.053 0.351-1.755-1.053-5.617-11.936-15.798-29.138-30.543-43.532-14.394-14.745-33.702-26.681-51.255-33.001 1.053 0.351 2.457 1.053 1.755 1.756-15.447-5.968-30.192-9.479-44.234-10.883-37.915-5.968-77.585 2.106-108.128 21.766 0.351 0.702 0.351 1.053-0.702 1.755-11.234 7.021-27.032 19.309-39.671 35.458-12.638 16.149-22.468 36.511-26.681 54.766 0.351-1.053 0.702-2.809 1.405-2.107-9.128 36.16-6.67 67.053 5.968 93.735 0.702-0.702-1.755-4.213 0.351-3.862 1.404 3.862 3.16 8.075 5.266 11.936 2.457 5.617 5.266 12.989 9.128 14.745-9.83-19.309-16.5-41.426-17.203-61.085 1.404 2.809 1.053 8.777 3.16 11.234 0.702-13.34-2.457-31.245 2.106-43.883-1.053 6.67-1.755 15.798-1.053 24.925 0 6.67 3.16 25.277 5.266 27.032-0.351-0.351-0.351-2.106 0-2.106 1.053 2.106-1.404 3.16 0.351 3.511 0-0.702 0.351-0.702 0.702-0.703 3.511 7.723 8.075 19.66 11.585 25.628 4.213 7.723 9.83 14.745 16.149 21.064 0 0.351 0.351 0.351 0.352 0.702 0.702 1.755 3.16 3.862 3.861 5.266 0.351 0.702-0.351 1.755 0 2.458 5.266 9.83 12.989 19.66 22.468 27.383 5.968 7.021 15.447 14.394 27.032 20.713 11.234 5.968 24.223 10.883 36.16 13.691 8.426 2.106 18.606 2.457 24.926 3.862 8.426 1.755 23.17-0.702 30.542-2.107 44.234-6.67 88.117-36.862 110.235-80.393 22.819-43.883 22.117-97.596 2.457-138.671" fill="#e33e33" fill-rule="nonzero" stroke="none" stroke-width="1" stroke-linecap="butt" stroke-linejoin="miter" stroke-miterlimit="10" stroke-dasharray="" stroke-dashoffset="0" font-family="none" font-weight="none" font-size="none" text-anchor="none" style="mix-blend-mode: normal" data-fill-palette-color="tertiary"></path></g><g transform="matrix(1,0,0,1,112.14840085287847,108)"><svg viewBox="0 0 95.70319829424308 144" height="144" width="95.70319829424308"><g><svg viewBox="0 0 95.70319829424308 144" height="144" width="95.70319829424308"><g><svg viewBox="0 0 95.70319829424308 144" height="144" width="95.70319829424308"><g id="textblocktransform"><svg viewBox="0 0 95.70319829424308 144" height="144" width="95.70319829424308" id="textblock"><g><svg viewBox="0 0 95.70319829424308 144" height="144" width="95.70319829424308"><g transform="matrix(1,0,0,1,0,0)"><svg width="95.70319829424308" viewBox="-0.8643749999999999 -32.55 22.264374999999998 33.5" height="144" data-palette-color="#e33e33"><path d="M10.8-11.3L10.8-11.3Q10.7-11.25 10.53-11.15 10.35-11.05 10.15-11.05L10.15-11.05Q9.75-11.05 9.6-11.5L9.6-11.5 9.5-11.85Q9.45-12.25 9.4-12.45 9.35-12.65 9.3-12.75L9.3-12.75Q9.2-13.3 9.22-13.5 9.25-13.7 9.3-13.8L9.3-13.8Q9.35-13.95 9.5-14.1L9.5-14.1Q9.7-14.15 10.05-14.15L10.05-14.15 10.35-14.15Q10.5-14.05 10.8-13.65L10.8-13.65Q11.1-12.95 11.05-12.6L11.05-12.6 10.9-11.95Q10.8-11.7 10.8-11.63 10.8-11.55 10.8-11.3ZM14.5-6.4L14.5-6.4Q14.6-7.3 14.9-7.9 15.2-8.5 15.6-8.6L15.6-8.6Q15.85-8.5 16-8.35 16.15-8.2 16.3-7.95L16.3-7.95Q16.3-7.7 16.35-7.6L16.35-7.6Q16.5-7.45 16.5-7.25L16.5-7.25Q16.5-6.85 16.25-6.53 16-6.2 15.75-6.1L15.75-6.1 15.05-5.8Q14.9-5.8 14.75-5.83 14.6-5.85 14.6-6.05L14.6-6.05Q14.6-6.1 14.5-6.4ZM15.7-9.7L15.55-10Q15.7-10.1 15.8-10.35L15.8-10.35Q15.9-10.45 15.95-10.45L15.95-10.45Q16.05-10.45 16.07-10.43 16.1-10.4 16.15-10.4L16.15-10.4Q16.85-10.4 16.88-10.13 16.9-9.85 16.85-9.5L16.85-9.5Q16.7-9.2 16.3-9.2L16.3-9.2Q15.95-9.2 15.8-9.3L15.8-9.3 15.7-9.7ZM-0.85-23.8L-0.45-24.15Q-0.2-24.1 0-23.95 0.2-23.8 0.4-23.65L0.4-23.65Q0.5-23.15 0.6-22.95L0.6-22.95Q0.65-22.6 0.45-22.3L0.45-22.3Q0.3-22.15-0.1-22.15L-0.1-22.15-0.2-22.15Q-0.65-22.45-0.78-22.65-0.9-22.85-0.85-23.1L-0.85-23.1Q-0.75-23.5-0.85-23.8L-0.85-23.8ZM0.95-20.7L0.95-20.7Q0.85-20.4 0.9-20.25L0.9-20.25Q0.95-19.95 0.6-19.95L0.6-19.95Q0.35-19.95 0.3-20.15L0.3-20.15Q0.2-20.35 0-20.4L0-20.4Q-0.05-20.65 0.08-20.78 0.2-20.9 0.45-21L0.45-21Q0.55-20.9 0.63-20.85 0.7-20.8 0.95-20.7ZM3.15-13.05L3-13.45 3.1-13.45Q2.9-13.8 3-13.95L3-13.95 3-14.2Q3-14.6 2.98-14.78 2.95-14.95 2.9-15.05L2.9-15.05Q3-15.25 3-15.45L3-15.45Q2.95-15.6 3.05-15.8L3.05-15.8Q3.05-16.1 3-16.25L3-16.25 3-16.6Q2.85-16.85 2.73-17.13 2.6-17.4 2.7-17.65L2.7-17.65Q2.65-17.9 2.63-18.03 2.6-18.15 2.6-18.25L2.6-18.25Q2.6-18.35 2.58-18.6 2.55-18.85 2.4-19.05L2.4-19.05Q2.3-19.25 2.4-19.4L2.4-19.4Q2.3-20.2 2.2-20.55L2.2-20.55 2.05-21.35Q1.85-21.5 1.85-21.85L1.85-21.85Q1.85-22.2 1.8-22.3L1.8-22.3 1.5-23.15Q1.4-23.3 1.35-23.43 1.3-23.55 1.3-23.7L1.3-23.7Q1.1-24.3 1.03-24.58 0.95-24.85 0.85-25.1L0.85-25.1 0.7-25.65Q0.55-25.9 0.48-26.23 0.4-26.55 0.35-26.8L0.35-26.8 0.2-27.35Q0.35-27.55 0.25-27.75L0.25-27.75Q0.15-27.95 0.2-28.2L0.2-28.2Q0.25-28.45 0.25-28.63 0.25-28.8 0.25-28.9L0.25-28.9Q0.25-29.15 0.43-29.45 0.6-29.75 0.65-29.8L0.65-29.8Q0.75-29.9 0.8-29.95 0.85-30 0.95-30.1L0.95-30.1 1.4-30.5Q1.45-30.6 1.7-30.7L1.7-30.7Q2.4-30.95 2.9-31.15 3.4-31.35 3.85-31.6L3.85-31.6Q4.05-31.7 4.28-31.7 4.5-31.7 4.7-31.7L4.7-31.7Q5.55-31.7 5.8-31.3L5.8-31.3Q6.1-31.3 6.15-31.25L6.15-31.25Q6.5-31.1 6.58-31 6.65-30.9 6.65-30.8L6.65-30.8Q6.65-30.3 6.9-29.85L6.9-29.85Q6.95-29.65 7-29.53 7.05-29.4 7.1-29.25L7.1-29.25Q7.1-29 7.2-28.5L7.2-28.5 7.35-27.65Q7.35-27.5 7.45-27.2L7.45-27.2Q7.5-27.1 7.5-26.98 7.5-26.85 7.5-26.75L7.5-26.75Q7.5-25.6 7-24.6L7-24.6Q6.85-23.85 7-23.1L7-23.1Q7.1-22.65 7.18-22.18 7.25-21.7 7.25-21.25L7.25-21.25Q7.5-20.8 7.4-20.45L7.4-20.45Q7.35-20.25 7.35-19.75L7.35-19.75Q7.35-19.55 7.35-19.35 7.35-19.15 7.3-18.9L7.3-18.9Q7.2-17.9 7.45-17.15L7.45-17.15Q7.5-16.95 7.5-16.78 7.5-16.6 7.55-16.4L7.55-16.4Q7.4-15.85 7.65-15.3L7.65-15.3Q7.9-14.7 7.85-14.25L7.85-14.25Q8.1-13.85 8.15-13.3 8.2-12.75 8.1-12.15L8.1-12.15Q8.15-11.8 8.28-11.5 8.4-11.2 8.55-10.95L8.55-10.95Q8.9-10.45 8.9-9.75L8.9-9.75 9.2-8.85Q9.2-8.6 9.25-8.38 9.3-8.15 9.4-7.9L9.4-7.9Q9.4-7.6 9.5-7.4L9.5-7.4 9.8-6.95Q9.7-6.45 10.05-6.25L10.05-6.25Q10.3-6.25 10.35-6.4L10.35-6.4Q10.6-7.2 10.68-7.48 10.75-7.75 10.85-7.9L10.85-7.9Q11-8.2 11.15-8.65L11.15-8.65Q11.1-9.25 11.4-9.4L11.4-9.4Q11.65-9.5 11.8-9.8L11.8-9.8Q12-9.85 12.1-10.05L12.1-10.05Q12.2-10.3 12.35-10.35L12.35-10.35 12.35-10.9Q12.35-11.05 12.33-11.18 12.3-11.3 12.35-11.5L12.35-11.5Q12.3-11.7 12.33-11.83 12.35-11.95 12.35-12.05L12.35-12.05 12.35-12.4Q12.3-12.55 12.4-12.85L12.4-12.85Q12.6-13 12.7-13.3L12.7-13.3Q12.8-13.55 12.9-13.65L12.9-13.65Q13-13.9 13.1-14.4L13.1-14.4Q13.1-14.8 13.25-15.1L13.25-15.1Q13.45-15.35 13.45-15.55L13.45-15.55Q13.5-15.7 13.58-15.9 13.65-16.1 13.75-16.25L13.75-16.25Q13.8-16.8 13.83-17.03 13.85-17.25 13.8-17.35L13.8-17.35Q13.75-17.45 13.78-17.68 13.8-17.9 13.9-18.05L13.9-18.05 14.05-18.4Q14-18.7 14.15-19.05L14.15-19.05Q14.3-19.2 14.4-19.65L14.4-19.65Q14.65-20.15 14.75-20.38 14.85-20.6 14.95-20.65L14.95-20.65Q14.9-20.9 15-21.15L15-21.15 15.15-21.55Q15.45-22 15.53-22.18 15.6-22.35 15.65-22.45L15.65-22.45Q15.65-22.95 15.68-23.15 15.7-23.35 15.75-23.45L15.75-23.45Q15.85-23.6 15.8-23.8L15.8-23.8Q15.7-24.45 15.9-24.9L15.9-24.9Q16.05-25.4 15.8-25.9L15.8-25.9Q15.75-26.4 15.75-26.58 15.75-26.75 15.85-26.85L15.85-26.85Q15.95-27.15 15.9-27.25L15.9-27.25Q16-27.75 16.03-28.03 16.05-28.3 16.05-28.55L16.05-28.55Q16.05-28.85 16.1-29L16.1-29Q16.2-29.5 16.15-29.7L16.15-29.7Q16.1-29.9 16.15-30.1L16.15-30.1Q16.2-30.5 16.45-30.95L16.45-30.95Q16.6-31.1 16.6-31.3L16.6-31.3 17.1-32Q17.35-32.1 17.53-32.23 17.7-32.35 17.8-32.45L17.8-32.45Q18-32.55 18.05-32.55L18.05-32.55Q18.1-32.55 18.3-32.45L18.3-32.45 18.7-32.45 19.1-32.45Q19.5-32.3 20-32.3L20-32.3Q20.25-32.2 20.4-32.1 20.55-32 20.65-31.75L20.65-31.75Q21.3-31.4 21.35-30.7 21.4-30 21.4-29.35L21.4-29.35Q21.3-28.95 21.1-28.65L21.1-28.65Q20.75-27.9 20.7-27.5L20.7-27.5Q20.6-27.2 20.45-27.05L20.45-27.05Q20.4-26.65 20.3-26.25 20.2-25.85 19.95-25.6L19.95-25.6Q19.45-24.9 19.3-24.2L19.3-24.2Q18.9-23.8 18.85-23.3L18.85-23.3Q18.65-22.7 18.4-22.25L18.4-22.25Q18.3-21.95 18.15-21.5 18-21.05 18-20.75L18-20.75Q17.45-19.7 17.3-19.4 17.15-19.1 17.15-18.9L17.15-18.9Q17.05-18.65 16.93-18.4 16.8-18.15 16.7-17.8L16.7-17.8Q16.55-17.5 16.48-17.18 16.4-16.85 16.3-16.6L16.3-16.6Q16.3-16.4 16.2-16.28 16.1-16.15 16-16L16-16Q16-15.85 16-15.7L16-15.7Q15.95-15.6 15.95-15.55L15.95-15.55 15.8-14.6Q15.75-14.3 15.73-14.03 15.7-13.75 15.65-13.5L15.65-13.5Q15.55-13.3 15.55-13.05L15.55-13.05Q15.55-12.8 15.45-12.53 15.35-12.25 15.2-11.9L15.2-11.9 15.05-11.2Q14.95-10.3 14.45-9.8L14.45-9.8Q14.1-9.3 14.05-8.9L14.05-8.9Q13.95-8.35 13.75-7.9L13.75-7.9Q13.75-7.65 13.73-7.45 13.7-7.25 13.6-7.1L13.6-7.1Q13.45-6.7 13.35-6.3 13.25-5.9 13.3-5.35L13.3-5.35Q13.3-5.1 13.25-4.7 13.2-4.3 13.13-3.9 13.05-3.5 12.95-3.13 12.85-2.75 12.75-2.6L12.75-2.6Q12.65-2.2 12.55-1.85 12.45-1.5 12.2-1.3L12.2-1.3Q12.1-1.2 12.08-1.07 12.05-0.95 12-0.85L12-0.85Q11.95-0.65 11.7-0.55L11.7-0.55Q11.65-0.3 11.5-0.15L11.5-0.15Q11.3 0.1 11.2 0.3L11.2 0.3Q10.9 0.4 10.85 0.45L10.85 0.45Q10.8 0.5 10.6 0.5L10.6 0.5 10.5 0.5Q9.85 0.95 9.4 0.95L9.4 0.95Q9.25 0.95 8.95 0.85L8.95 0.85Q8.6 0.7 8.6 0.7L8.6 0.7Q8.15 0.7 8.1 0.6L8.1 0.6Q8.1 0.45 7.8 0.45L7.8 0.45Q7.55 0.2 7.5 0.03 7.45-0.15 7.35-0.4L7.35-0.4Q7.25-0.65 7.18-0.85 7.1-1.05 6.95-1.15L6.95-1.15Q6.8-1.6 6.75-1.65L6.75-1.65Q6.55-2.05 6.48-2.15 6.4-2.25 6.3-2.5L6.3-2.5Q5.95-2.95 5.85-3L5.85-3Q5.75-3.25 5.7-3.5 5.65-3.75 5.6-3.95L5.6-3.95Q5.55-4.1 5.55-4.28 5.55-4.45 5.5-4.65L5.5-4.65Q5.15-5.05 5.15-5L5.15-5Q5-5.2 4.85-5.35L4.85-5.35Q4.65-5.45 4.75-5.7L4.75-5.7Q4.5-6.05 4.45-6.5 4.4-6.95 4.35-7.5L4.35-7.5 4.3-7.95Q4.25-8.25 4.3-8.55L4.3-8.55Q4.3-8.7 4.28-8.85 4.25-9 4.2-9.2L4.2-9.2Q4.1-9.6 4.1-9.95L4.1-9.95Q4.2-10.45 3.95-10.9L3.95-10.9Q3.95-11.35 3.9-11.5L3.9-11.5Q3.7-11.75 3.65-12.05L3.65-12.05Q3.6-12.35 3.35-12.6L3.35-12.6Q3.25-12.75 3.15-13.05L3.15-13.05Z" opacity="1" transform="matrix(1,0,0,1,0,0)" fill="#e33e33" class="wordmark-text-0" data-fill-palette-color="primary" id="text-0"></path></svg></g></svg></g></svg></g></svg></g><g></g></svg></g></svg></g></svg></g><defs></defs></svg><rect width="320" height="360" fill="none" stroke="none" visibility="hidden"></rect></g></svg></g></svg>